<svg width="1281" height="326" viewBox="0 0 1281 326" fill="none" xmlns="http://www.w3.org/2000/svg">
<g clip-path="url(#clip0_51_15)">
<path d="M0.532227 4.59995H62.9082L111.272 193.988H112.176V4.59995H156.472V321H105.396L45.7322 90.028H44.8282V321H0.532227V4.59995Z" fill="white"/>
<path d="M179.867 4.59995H315.467V49.8H229.587V133.42H297.839V178.62H229.587V275.8H315.467V321H179.867V4.59995Z" fill="white"/>
<path d="M318.758 4.59995H366.67L388.818 247.776H389.722L413.226 4.59995H467.466L490.97 247.776H491.874L514.022 4.59995H556.962L524.87 321H462.946L440.346 107.656H439.442L416.842 321H350.85L318.758 4.59995Z" fill="white"/>
<path d="M627.382 4.59995H703.318C728.027 4.59995 746.559 11.2293 758.914 24.488C771.269 37.7466 777.446 57.1826 777.446 82.796V242.804C777.446 268.417 771.269 287.853 758.914 301.112C746.559 314.371 728.027 321 703.318 321H627.382V4.59995ZM702.414 275.8C710.55 275.8 716.727 273.389 720.946 268.568C725.466 263.747 727.726 255.912 727.726 245.064V80.536C727.726 69.688 725.466 61.8533 720.946 57.032C716.727 52.2106 710.55 49.8 702.414 49.8H677.102V275.8H702.414Z" fill="white"/>
<path d="M797.447 4.59995H871.123C896.736 4.59995 915.419 10.6266 927.171 22.68C938.923 34.432 944.799 52.6626 944.799 77.372V96.808C944.799 129.653 933.951 150.445 912.255 159.184V160.088C924.308 163.704 932.746 171.087 937.567 182.236C942.69 193.385 945.251 208.301 945.251 226.984V282.58C945.251 291.62 945.552 299.003 946.155 304.728C946.758 310.152 948.264 315.576 950.675 321H900.051C898.243 315.877 897.038 311.056 896.435 306.536C895.832 302.016 895.531 293.88 895.531 282.128V224.272C895.531 209.808 893.12 199.713 888.299 193.988C883.779 188.263 875.794 185.4 864.343 185.4H847.167V321H797.447V4.59995ZM865.247 140.2C875.191 140.2 882.574 137.639 887.395 132.516C892.518 127.393 895.079 118.805 895.079 106.752V82.344C895.079 70.8933 892.97 62.6066 888.751 57.484C884.834 52.3613 878.506 49.8 869.767 49.8H847.167V140.2H865.247Z" fill="white"/>
<path d="M1038.06 325.52C1013.65 325.52 994.965 318.589 982.008 304.728C969.051 290.867 962.572 271.28 962.572 245.968V79.632C962.572 54.32 969.051 34.7333 982.008 20.872C994.965 7.01062 1013.65 0.0799561 1038.06 0.0799561C1062.46 0.0799561 1081.15 7.01062 1094.1 20.872C1107.06 34.7333 1113.54 54.32 1113.54 79.632V245.968C1113.54 271.28 1107.06 290.867 1094.1 304.728C1081.15 318.589 1062.46 325.52 1038.06 325.52ZM1038.06 280.32C1055.23 280.32 1063.82 269.924 1063.82 249.132V76.468C1063.82 55.676 1055.23 45.28 1038.06 45.28C1020.88 45.28 1012.29 55.676 1012.29 76.468V249.132C1012.29 269.924 1020.88 280.32 1038.06 280.32Z" fill="white"/>
<path d="M1133.6 4.59995H1206.83C1231.54 4.59995 1250.07 11.2293 1262.42 24.488C1274.78 37.7466 1280.96 57.1826 1280.96 82.796V113.984C1280.96 139.597 1274.78 159.033 1262.42 172.292C1250.07 185.551 1231.54 192.18 1206.83 192.18H1183.32V321H1133.6V4.59995ZM1206.83 146.98C1214.96 146.98 1220.99 144.72 1224.91 140.2C1229.13 135.68 1231.24 127.996 1231.24 117.148V79.632C1231.24 68.784 1229.13 61.1 1224.91 56.58C1220.99 52.06 1214.96 49.8 1206.83 49.8H1183.32V146.98H1206.83Z" fill="white"/>
</g>
<defs>
<clipPath id="clip0_51_15">
<rect width="1281" height="326" fill="white"/>
</clipPath>
</defs>
</svg>
